<svg xmlns="http://www.w3.org/2000/svg" xmlns:xlink="http://www.w3.org/1999/xlink" width="1920" zoomAndPan="magnify" viewBox="0 0 1440 187.499995" height="250" preserveAspectRatio="xMidYMid meet" version="1.0"><defs><g/><clipPath id="2b49c5271f"><rect x="0" width="1341" y="0" height="178"/></clipPath></defs><g transform="matrix(1, 0, 0, 1, 48, 7)"><g clip-path="url(#2b49c5271f)"><g fill="#2c3f70" fill-opacity="1"><g transform="translate(4.18208, 124.721735)"><g><path d="M 105.03125 -80.03125 C 106.707031 -80.03125 108.003906 -79.75 108.921875 -79.1875 C 109.847656 -78.632812 110.3125 -77.914062 110.3125 -77.03125 C 110.3125 -76.625 110.191406 -76.101562 109.953125 -75.46875 C 109.710938 -74.90625 109.375 -74.40625 108.9375 -73.96875 C 108.5 -73.53125 108.097656 -73.207031 107.734375 -73 C 107.367188 -72.800781 107.109375 -72.625 106.953125 -72.46875 C 105.671875 -71.738281 104.628906 -70.929688 103.828125 -70.046875 C 103.023438 -69.171875 102.34375 -67.8125 101.78125 -65.96875 L 87 -14.1875 C 86.6875 -13.144531 86.53125 -12.140625 86.53125 -11.171875 C 86.53125 -10.210938 86.664062 -9.453125 86.9375 -8.890625 C 87.21875 -8.328125 87.640625 -7.609375 88.203125 -6.734375 C 88.285156 -6.648438 88.503906 -6.347656 88.859375 -5.828125 C 89.222656 -5.304688 89.40625 -4.765625 89.40625 -4.203125 C 89.40625 -4.046875 89.328125 -3.644531 89.171875 -3 C 88.765625 -1.882812 88 -1.101562 86.875 -0.65625 C 85.757812 -0.21875 84.082031 0 81.84375 0 L 53.59375 0 C 51.914062 0 50.613281 -0.28125 49.6875 -0.84375 C 48.769531 -1.40625 48.3125 -2.164062 48.3125 -3.125 C 48.3125 -3.601562 48.429688 -4.125 48.671875 -4.6875 C 48.992188 -5.320312 49.429688 -5.859375 49.984375 -6.296875 C 50.546875 -6.742188 51.109375 -7.128906 51.671875 -7.453125 C 52.953125 -8.171875 53.992188 -8.988281 54.796875 -9.90625 C 55.597656 -10.832031 56.28125 -12.257812 56.84375 -14.1875 L 62.609375 -34.25 L 41.34375 -34.25 L 35.578125 -14.1875 C 35.253906 -13.144531 35.09375 -12.140625 35.09375 -11.171875 C 35.09375 -10.210938 35.234375 -9.453125 35.515625 -8.890625 C 35.796875 -8.328125 36.210938 -7.609375 36.765625 -6.734375 C 36.847656 -6.648438 37.066406 -6.347656 37.421875 -5.828125 C 37.785156 -5.304688 37.96875 -4.765625 37.96875 -4.203125 C 37.96875 -4.046875 37.890625 -3.644531 37.734375 -3 C 37.335938 -1.882812 36.578125 -1.101562 35.453125 -0.65625 C 34.328125 -0.21875 32.644531 0 30.40625 0 L 2.15625 0 C 0.476562 0 -0.816406 -0.28125 -1.734375 -0.84375 C -2.660156 -1.40625 -3.125 -2.164062 -3.125 -3.125 C -3.125 -3.601562 -3.003906 -4.125 -2.765625 -4.6875 C -2.441406 -5.320312 -2 -5.859375 -1.4375 -6.296875 C -0.875 -6.742188 -0.316406 -7.128906 0.234375 -7.453125 C 1.515625 -8.171875 2.554688 -8.988281 3.359375 -9.90625 C 4.160156 -10.832031 4.84375 -12.257812 5.40625 -14.1875 L 20.1875 -65.96875 C 20.507812 -67.007812 20.671875 -68.015625 20.671875 -68.984375 C 20.671875 -69.859375 20.53125 -70.597656 20.25 -71.203125 C 19.96875 -71.804688 19.585938 -72.507812 19.109375 -73.3125 C 18.785156 -73.707031 18.503906 -74.125 18.265625 -74.5625 C 18.023438 -75.007812 17.90625 -75.472656 17.90625 -75.953125 C 17.90625 -76.109375 17.984375 -76.507812 18.140625 -77.15625 C 18.460938 -78.195312 19.179688 -78.9375 20.296875 -79.375 C 21.421875 -79.8125 23.109375 -80.03125 25.359375 -80.03125 L 53.59375 -80.03125 C 55.28125 -80.03125 56.582031 -79.75 57.5 -79.1875 C 58.425781 -78.632812 58.890625 -77.914062 58.890625 -77.03125 C 58.890625 -76.625 58.769531 -76.101562 58.53125 -75.46875 C 58.28125 -74.90625 57.9375 -74.40625 57.5 -73.96875 C 57.0625 -73.53125 56.660156 -73.207031 56.296875 -73 C 55.941406 -72.800781 55.679688 -72.625 55.515625 -72.46875 C 54.234375 -71.738281 53.191406 -70.929688 52.390625 -70.046875 C 51.585938 -69.171875 50.910156 -67.8125 50.359375 -65.96875 L 44.703125 -46.265625 L 65.96875 -46.265625 L 71.625 -65.96875 C 71.945312 -67.007812 72.109375 -68.015625 72.109375 -68.984375 C 72.109375 -69.859375 71.96875 -70.597656 71.6875 -71.203125 C 71.40625 -71.804688 71.023438 -72.507812 70.546875 -73.3125 C 70.222656 -73.707031 69.941406 -74.125 69.703125 -74.5625 C 69.460938 -75.007812 69.34375 -75.472656 69.34375 -75.953125 C 69.34375 -76.109375 69.421875 -76.507812 69.578125 -77.15625 C 69.898438 -78.195312 70.617188 -78.9375 71.734375 -79.375 C 72.859375 -79.8125 74.546875 -80.03125 76.796875 -80.03125 Z M 105.03125 -80.03125 "/></g></g></g><g fill="#2c3f70" fill-opacity="1"><g transform="translate(104.399101, 124.721735)"><g><path d="M 31.609375 -63.578125 C 36.253906 -63.578125 39.65625 -62.691406 41.8125 -60.921875 C 43.976562 -59.160156 45.0625 -56.757812 45.0625 -53.71875 C 45.0625 -51.875 44.78125 -50.109375 44.21875 -48.421875 L 33.171875 -12.5 C 32.929688 -11.539062 32.8125 -10.695312 32.8125 -9.96875 C 32.8125 -8.925781 33.007812 -8.101562 33.40625 -7.5 C 33.800781 -6.90625 34.363281 -6.328125 35.09375 -5.765625 C 35.65625 -5.203125 36.054688 -4.738281 36.296875 -4.375 C 36.535156 -4.019531 36.570312 -3.5625 36.40625 -3 C 36.007812 -1.957031 35.207031 -1.195312 34 -0.71875 C 32.800781 -0.238281 30.960938 0 28.484375 0 L 1.078125 0 C -1.003906 0 -2.523438 -0.335938 -3.484375 -1.015625 C -4.441406 -1.703125 -4.765625 -2.601562 -4.453125 -3.71875 C -4.128906 -4.6875 -3.285156 -5.53125 -1.921875 -6.25 C -0.722656 -6.882812 0.273438 -7.644531 1.078125 -8.53125 C 1.878906 -9.414062 2.5625 -10.816406 3.125 -12.734375 L 13.578125 -47.46875 C 13.816406 -48.1875 13.9375 -48.785156 13.9375 -49.265625 C 13.9375 -50.148438 13.734375 -50.851562 13.328125 -51.375 C 12.929688 -51.894531 12.332031 -52.4375 11.53125 -53 C 10.726562 -53.632812 10.164062 -54.191406 9.84375 -54.671875 C 9.53125 -55.160156 9.492188 -55.800781 9.734375 -56.59375 C 10.210938 -58.4375 12.734375 -60.0625 17.296875 -61.46875 C 21.867188 -62.875 26.640625 -63.578125 31.609375 -63.578125 Z M 39.640625 -90.125 C 42.765625 -90.125 45.367188 -89.101562 47.453125 -87.0625 C 49.535156 -85.019531 50.578125 -82.515625 50.578125 -79.546875 C 50.578125 -77.460938 50.035156 -75.421875 48.953125 -73.421875 C 47.878906 -71.421875 46.359375 -69.800781 44.390625 -68.5625 C 42.429688 -67.320312 40.25 -66.703125 37.84375 -66.703125 C 34.800781 -66.703125 32.257812 -67.722656 30.21875 -69.765625 C 28.175781 -71.804688 27.113281 -74.347656 27.03125 -77.390625 C 27.03125 -79.390625 27.550781 -81.367188 28.59375 -83.328125 C 29.632812 -85.296875 31.113281 -86.921875 33.03125 -88.203125 C 34.957031 -89.484375 37.160156 -90.125 39.640625 -90.125 Z M 39.640625 -90.125 "/></g></g></g><g fill="#2c3f70" fill-opacity="1"><g transform="translate(148.379231, 124.721735)"><g><path d="M 11.53125 -24.28125 C 15.21875 -24.28125 18.300781 -22.992188 20.78125 -20.421875 C 23.269531 -17.859375 24.515625 -14.457031 24.515625 -10.21875 C 24.515625 -5.164062 23.050781 -0.4375 20.125 3.96875 C 17.207031 8.375 13.664062 11.894531 9.5 14.53125 C 5.332031 17.175781 1.523438 18.5 -1.921875 18.5 C -4.566406 18.5 -5.890625 17.582031 -5.890625 15.75 C -5.890625 14.707031 -5.445312 13.703125 -4.5625 12.734375 C -3.6875 11.773438 -2.40625 10.65625 -0.71875 9.375 C 1.039062 8.007812 2.398438 6.785156 3.359375 5.703125 C 4.328125 4.617188 4.8125 3.476562 4.8125 2.28125 C 4.8125 1.320312 4.171875 0.0390625 2.890625 -1.5625 C 1.679688 -3.164062 0.773438 -4.628906 0.171875 -5.953125 C -0.421875 -7.273438 -0.71875 -8.894531 -0.71875 -10.8125 C -0.71875 -14.5 0.460938 -17.664062 2.828125 -20.3125 C 5.191406 -22.957031 8.09375 -24.28125 11.53125 -24.28125 Z M 11.53125 -24.28125 "/></g></g></g><g fill="#2c3f70" fill-opacity="1"><g transform="translate(183.347037, 124.721735)"><g/></g></g><g fill="#2c3f70" fill-opacity="1"><g transform="translate(207.379894, 124.721735)"><g><path d="M 53.359375 -80.03125 C 55.035156 -80.03125 56.332031 -79.769531 57.25 -79.25 C 58.175781 -78.726562 58.640625 -77.988281 58.640625 -77.03125 C 58.640625 -76.625 58.519531 -76.101562 58.28125 -75.46875 C 58.039062 -74.90625 57.695312 -74.40625 57.25 -73.96875 C 56.8125 -73.53125 56.410156 -73.207031 56.046875 -73 C 55.691406 -72.800781 55.4375 -72.625 55.28125 -72.46875 C 54 -71.738281 52.957031 -70.929688 52.15625 -70.046875 C 51.351562 -69.171875 50.671875 -67.8125 50.109375 -65.96875 L 35.578125 -14.1875 C 35.253906 -13.144531 35.09375 -12.140625 35.09375 -11.171875 C 35.09375 -10.210938 35.234375 -9.410156 35.515625 -8.765625 C 35.796875 -8.128906 36.210938 -7.453125 36.765625 -6.734375 C 37.492188 -5.691406 37.859375 -4.847656 37.859375 -4.203125 C 37.859375 -4.046875 37.773438 -3.644531 37.609375 -3 C 37.296875 -1.882812 36.578125 -1.101562 35.453125 -0.65625 C 34.328125 -0.21875 32.644531 0 30.40625 0 L 2.15625 0 C 0.476562 0 -0.816406 -0.28125 -1.734375 -0.84375 C -2.660156 -1.40625 -3.125 -2.164062 -3.125 -3.125 C -3.125 -3.601562 -3.003906 -4.125 -2.765625 -4.6875 C -2.441406 -5.570312 -1.921875 -6.253906 -1.203125 -6.734375 C -0.484375 -7.210938 -0.0390625 -7.492188 0.125 -7.578125 C 1.40625 -8.367188 2.445312 -9.1875 3.25 -10.03125 C 4.050781 -10.875 4.726562 -12.257812 5.28125 -14.1875 L 19.953125 -65.96875 C 20.265625 -67.007812 20.421875 -68.015625 20.421875 -68.984375 C 20.421875 -69.859375 20.28125 -70.597656 20 -71.203125 C 19.726562 -71.804688 19.347656 -72.507812 18.859375 -73.3125 C 18.140625 -74.34375 17.78125 -75.179688 17.78125 -75.828125 C 17.78125 -76.066406 17.863281 -76.507812 18.03125 -77.15625 C 18.34375 -78.195312 19.039062 -78.9375 20.125 -79.375 C 21.207031 -79.8125 22.867188 -80.03125 25.109375 -80.03125 Z M 53.359375 -80.03125 "/></g></g></g><g fill="#2c3f70" fill-opacity="1"><g transform="translate(255.92627, 124.721735)"><g><path d="M 27.875 -83.515625 C 31.40625 -83.515625 34.453125 -82.191406 37.015625 -79.546875 C 39.578125 -76.910156 40.859375 -73.425781 40.859375 -69.09375 C 40.859375 -67.414062 40.617188 -65.613281 40.140625 -63.6875 C 39.253906 -60.082031 37.671875 -56.976562 35.390625 -54.375 C 33.109375 -51.769531 30.484375 -49.804688 27.515625 -48.484375 C 24.554688 -47.160156 21.671875 -46.5 18.859375 -46.5 C 15.578125 -46.5 13.9375 -47.460938 13.9375 -49.390625 C 13.9375 -49.867188 13.976562 -50.226562 14.0625 -50.46875 C 14.300781 -51.351562 14.78125 -52.09375 15.5 -52.6875 C 16.21875 -53.289062 17.335938 -54.113281 18.859375 -55.15625 C 20.628906 -56.4375 21.914062 -57.476562 22.71875 -58.28125 C 23.519531 -59.082031 23.921875 -60.046875 23.921875 -61.171875 C 23.921875 -61.890625 23.695312 -62.609375 23.25 -63.328125 C 22.8125 -64.046875 22.113281 -65.007812 21.15625 -66.21875 C 19.875 -67.894531 18.910156 -69.296875 18.265625 -70.421875 C 17.628906 -71.546875 17.3125 -72.828125 17.3125 -74.265625 C 17.3125 -75.148438 17.429688 -75.992188 17.671875 -76.796875 C 18.304688 -78.953125 19.503906 -80.609375 21.265625 -81.765625 C 23.035156 -82.929688 25.238281 -83.515625 27.875 -83.515625 Z M 27.875 -83.515625 "/></g></g></g><g fill="#2c3f70" fill-opacity="1"><g transform="translate(292.456204, 124.721735)"><g><path d="M 114.28125 -16.578125 C 114.125 -16.265625 114.046875 -15.785156 114.046875 -15.140625 C 114.046875 -14.578125 114.1875 -14.132812 114.46875 -13.8125 C 114.75 -13.5 115.128906 -13.34375 115.609375 -13.34375 C 116.566406 -13.34375 117.382812 -13.757812 118.0625 -14.59375 C 118.75 -15.4375 119.210938 -15.859375 119.453125 -15.859375 C 119.847656 -15.859375 120.164062 -15.597656 120.40625 -15.078125 C 120.644531 -14.554688 120.765625 -13.9375 120.765625 -13.21875 C 120.847656 -10.894531 120.085938 -8.628906 118.484375 -6.421875 C 116.890625 -4.222656 114.546875 -2.421875 111.453125 -1.015625 C 108.367188 0.378906 104.664062 1.078125 100.34375 1.078125 C 95.050781 1.078125 90.84375 -0.140625 87.71875 -2.578125 C 84.59375 -5.023438 82.992188 -8.289062 82.921875 -12.375 C 82.921875 -15.34375 83.640625 -18.671875 85.078125 -22.359375 L 91.6875 -39.65625 C 92.09375 -40.695312 92.296875 -41.539062 92.296875 -42.1875 C 92.296875 -43.226562 91.953125 -44.046875 91.265625 -44.640625 C 90.585938 -45.242188 89.769531 -45.546875 88.8125 -45.546875 C 87.445312 -45.546875 86.039062 -44.941406 84.59375 -43.734375 C 83.15625 -42.535156 81.875 -40.65625 80.75 -38.09375 L 74.140625 -16.578125 C 73.984375 -16.265625 73.90625 -15.785156 73.90625 -15.140625 C 73.90625 -14.578125 74.046875 -14.132812 74.328125 -13.8125 C 74.609375 -13.5 74.988281 -13.34375 75.46875 -13.34375 C 76.425781 -13.34375 77.242188 -13.757812 77.921875 -14.59375 C 78.609375 -15.4375 79.070312 -15.859375 79.3125 -15.859375 C 79.71875 -15.859375 80.039062 -15.597656 80.28125 -15.078125 C 80.519531 -14.554688 80.640625 -13.9375 80.640625 -13.21875 C 80.710938 -10.894531 79.945312 -8.628906 78.34375 -6.421875 C 76.75 -4.222656 74.410156 -2.421875 71.328125 -1.015625 C 68.242188 0.378906 64.535156 1.078125 60.203125 1.078125 C 54.921875 1.078125 50.71875 -0.140625 47.59375 -2.578125 C 44.46875 -5.023438 42.863281 -8.289062 42.78125 -12.375 C 42.78125 -15.34375 43.5 -18.671875 44.9375 -22.359375 L 51.546875 -39.65625 C 51.953125 -40.695312 52.15625 -41.539062 52.15625 -42.1875 C 52.15625 -43.226562 51.8125 -44.046875 51.125 -44.640625 C 50.445312 -45.242188 49.628906 -45.546875 48.671875 -45.546875 C 47.304688 -45.546875 45.898438 -44.960938 44.453125 -43.796875 C 43.015625 -42.640625 41.816406 -40.78125 40.859375 -38.21875 L 32.921875 -12.5 C 32.609375 -11.613281 32.453125 -10.769531 32.453125 -9.96875 C 32.453125 -9.007812 32.648438 -8.226562 33.046875 -7.625 C 33.441406 -7.03125 34.003906 -6.410156 34.734375 -5.765625 C 35.296875 -5.285156 35.695312 -4.84375 35.9375 -4.4375 C 36.175781 -4.039062 36.210938 -3.5625 36.046875 -3 C 35.734375 -1.957031 34.972656 -1.195312 33.765625 -0.71875 C 32.566406 -0.238281 30.6875 0 28.125 0 L 0.71875 0 C -1.363281 0 -2.863281 -0.335938 -3.78125 -1.015625 C -4.707031 -1.703125 -5.050781 -2.601562 -4.8125 -3.71875 C -4.488281 -4.6875 -3.644531 -5.53125 -2.28125 -6.25 C -1.082031 -6.882812 -0.0820312 -7.644531 0.71875 -8.53125 C 1.519531 -9.414062 2.203125 -10.816406 2.765625 -12.734375 L 13.453125 -47.46875 C 13.617188 -47.863281 13.703125 -48.425781 13.703125 -49.15625 C 13.703125 -50.03125 13.519531 -50.707031 13.15625 -51.1875 C 12.800781 -51.675781 12.222656 -52.28125 11.421875 -53 C 10.617188 -53.632812 10.054688 -54.191406 9.734375 -54.671875 C 9.410156 -55.160156 9.367188 -55.800781 9.609375 -56.59375 C 10.085938 -58.4375 12.609375 -60.0625 17.171875 -61.46875 C 21.742188 -62.875 26.515625 -63.578125 31.484375 -63.578125 C 35.410156 -63.578125 38.515625 -62.492188 40.796875 -60.328125 C 43.078125 -58.160156 44.179688 -55.195312 44.109375 -51.4375 C 47.390625 -56 50.851562 -59.160156 54.5 -60.921875 C 58.144531 -62.691406 62.085938 -63.578125 66.328125 -63.578125 C 70.984375 -63.578125 74.769531 -62.234375 77.6875 -59.546875 C 80.613281 -56.859375 82.238281 -53.351562 82.5625 -49.03125 C 86 -54.476562 89.679688 -58.265625 93.609375 -60.390625 C 97.535156 -62.515625 101.820312 -63.578125 106.46875 -63.578125 C 111.351562 -63.578125 115.296875 -62.09375 118.296875 -59.125 C 121.304688 -56.15625 122.8125 -52.3125 122.8125 -47.59375 C 122.8125 -45.101562 122.410156 -42.65625 121.609375 -40.25 Z M 114.28125 -16.578125 "/></g></g></g><g fill="#2c3f70" fill-opacity="1"><g transform="translate(418.388388, 124.721735)"><g/></g></g><g fill="#2c3f70" fill-opacity="1"><g transform="translate(442.421245, 124.721735)"><g><path d="M 87.96875 -80.515625 C 91.332031 -80.515625 94.132812 -79.429688 96.375 -77.265625 C 98.625 -75.109375 99.75 -72.1875 99.75 -68.5 C 99.75 -64.332031 98.503906 -60.96875 96.015625 -58.40625 C 93.535156 -55.84375 90.570312 -54.5625 87.125 -54.5625 C 84.882812 -54.5625 82.960938 -54.960938 81.359375 -55.765625 C 79.753906 -56.566406 78.234375 -57.847656 76.796875 -59.609375 L 66.453125 -50.953125 L 78.109375 -16.46875 C 78.828125 -14.457031 79.609375 -12.851562 80.453125 -11.65625 C 81.296875 -10.457031 82.316406 -9.253906 83.515625 -8.046875 C 84.398438 -7.171875 85.019531 -6.472656 85.375 -5.953125 C 85.738281 -5.429688 85.921875 -4.804688 85.921875 -4.078125 C 85.921875 -2.796875 85.335938 -1.796875 84.171875 -1.078125 C 83.015625 -0.359375 80.992188 0 78.109375 0 L 62.375 0 C 58.445312 0 55.539062 -0.859375 53.65625 -2.578125 C 51.769531 -4.304688 50.226562 -7.171875 49.03125 -11.171875 L 43.015625 -31.359375 L 39.53125 -28.484375 L 35.578125 -14.1875 C 35.253906 -13.144531 35.09375 -12.140625 35.09375 -11.171875 C 35.09375 -10.210938 35.234375 -9.410156 35.515625 -8.765625 C 35.796875 -8.128906 36.210938 -7.453125 36.765625 -6.734375 C 37.492188 -5.691406 37.859375 -4.847656 37.859375 -4.203125 C 37.859375 -4.046875 37.773438 -3.644531 37.609375 -3 C 37.296875 -1.882812 36.578125 -1.101562 35.453125 -0.65625 C 34.328125 -0.21875 32.644531 0 30.40625 0 L 2.15625 0 C 0.476562 0 -0.816406 -0.28125 -1.734375 -0.84375 C -2.660156 -1.40625 -3.125 -2.164062 -3.125 -3.125 C -3.125 -3.601562 -3.003906 -4.125 -2.765625 -4.6875 C -2.441406 -5.570312 -1.921875 -6.253906 -1.203125 -6.734375 C -0.484375 -7.210938 -0.0390625 -7.492188 0.125 -7.578125 C 1.40625 -8.367188 2.445312 -9.1875 3.25 -10.03125 C 4.050781 -10.875 4.726562 -12.257812 5.28125 -14.1875 L 19.953125 -65.96875 C 20.265625 -67.007812 20.421875 -68.015625 20.421875 -68.984375 C 20.421875 -69.859375 20.28125 -70.597656 20 -71.203125 C 19.726562 -71.804688 19.347656 -72.507812 18.859375 -73.3125 C 18.140625 -74.34375 17.78125 -75.179688 17.78125 -75.828125 C 17.78125 -76.066406 17.863281 -76.507812 18.03125 -77.15625 C 18.34375 -78.195312 19.039062 -78.9375 20.125 -79.375 C 21.207031 -79.8125 22.867188 -80.03125 25.109375 -80.03125 L 53.359375 -80.03125 C 55.035156 -80.03125 56.332031 -79.769531 57.25 -79.25 C 58.175781 -78.726562 58.640625 -77.988281 58.640625 -77.03125 C 58.640625 -76.625 58.519531 -76.101562 58.28125 -75.46875 C 58.039062 -74.90625 57.695312 -74.40625 57.25 -73.96875 C 56.8125 -73.53125 56.410156 -73.207031 56.046875 -73 C 55.691406 -72.800781 55.4375 -72.625 55.28125 -72.46875 C 54 -71.738281 52.957031 -70.929688 52.15625 -70.046875 C 51.351562 -69.171875 50.671875 -67.8125 50.109375 -65.96875 L 45.0625 -48.0625 L 76.90625 -75.59375 C 78.988281 -77.351562 80.867188 -78.613281 82.546875 -79.375 C 84.234375 -80.132812 86.039062 -80.515625 87.96875 -80.515625 Z M 87.96875 -80.515625 "/></g></g></g><g fill="#2c3f70" fill-opacity="1"><g transform="translate(536.990528, 124.721735)"><g><path d="M 40.734375 -64.171875 C 50.910156 -64.171875 58.28125 -62.546875 62.84375 -59.296875 C 67.414062 -56.054688 69.703125 -51.910156 69.703125 -46.859375 C 69.703125 -45.335938 69.539062 -43.9375 69.21875 -42.65625 C 68.019531 -37.375 64.675781 -33.585938 59.1875 -31.296875 C 53.695312 -29.015625 47.226562 -27.875 39.78125 -27.875 C 36.007812 -27.875 32.484375 -28.113281 29.203125 -28.59375 C 29.117188 -24.4375 30.238281 -21.515625 32.5625 -19.828125 C 34.882812 -18.148438 38.128906 -17.3125 42.296875 -17.3125 C 44.222656 -17.3125 46.066406 -17.53125 47.828125 -17.96875 C 49.585938 -18.40625 51.832031 -19.066406 54.5625 -19.953125 C 56.800781 -20.753906 58.320312 -21.15625 59.125 -21.15625 C 60.007812 -21.15625 60.453125 -20.632812 60.453125 -19.59375 C 60.523438 -16.78125 59.476562 -13.832031 57.3125 -10.75 C 55.15625 -7.664062 51.953125 -5.039062 47.703125 -2.875 C 43.460938 -0.71875 38.335938 0.359375 32.328125 0.359375 C 23.429688 0.359375 16.140625 -1.878906 10.453125 -6.359375 C 4.765625 -10.847656 1.921875 -17.378906 1.921875 -25.953125 C 1.921875 -28.359375 2.242188 -31.164062 2.890625 -34.375 C 4.890625 -44.226562 9.273438 -51.65625 16.046875 -56.65625 C 22.816406 -61.664062 31.046875 -64.171875 40.734375 -64.171875 Z M 30.046875 -35.8125 C 30.367188 -35.726562 30.804688 -35.6875 31.359375 -35.6875 C 34.722656 -35.6875 37.285156 -37.25 39.046875 -40.375 C 40.816406 -43.5 41.660156 -46.984375 41.578125 -50.828125 C 41.492188 -53.078125 40.851562 -54.203125 39.65625 -54.203125 C 38.769531 -54.203125 37.726562 -53.5 36.53125 -52.09375 C 35.332031 -50.6875 34.148438 -48.582031 32.984375 -45.78125 C 31.828125 -42.976562 30.847656 -39.65625 30.046875 -35.8125 Z M 30.046875 -35.8125 "/></g></g></g><g fill="#2c3f70" fill-opacity="1"><g transform="translate(604.282547, 124.721735)"><g><path d="M 114.28125 -16.578125 C 114.125 -16.265625 114.046875 -15.785156 114.046875 -15.140625 C 114.046875 -14.578125 114.1875 -14.132812 114.46875 -13.8125 C 114.75 -13.5 115.128906 -13.34375 115.609375 -13.34375 C 116.566406 -13.34375 117.382812 -13.757812 118.0625 -14.59375 C 118.75 -15.4375 119.210938 -15.859375 119.453125 -15.859375 C 119.847656 -15.859375 120.164062 -15.597656 120.40625 -15.078125 C 120.644531 -14.554688 120.765625 -13.9375 120.765625 -13.21875 C 120.847656 -10.894531 120.085938 -8.628906 118.484375 -6.421875 C 116.890625 -4.222656 114.546875 -2.421875 111.453125 -1.015625 C 108.367188 0.378906 104.664062 1.078125 100.34375 1.078125 C 95.050781 1.078125 90.84375 -0.140625 87.71875 -2.578125 C 84.59375 -5.023438 82.992188 -8.289062 82.921875 -12.375 C 82.921875 -15.34375 83.640625 -18.671875 85.078125 -22.359375 L 91.6875 -39.65625 C 92.09375 -40.695312 92.296875 -41.539062 92.296875 -42.1875 C 92.296875 -43.226562 91.953125 -44.046875 91.265625 -44.640625 C 90.585938 -45.242188 89.769531 -45.546875 88.8125 -45.546875 C 87.445312 -45.546875 86.039062 -44.941406 84.59375 -43.734375 C 83.15625 -42.535156 81.875 -40.65625 80.75 -38.09375 L 74.140625 -16.578125 C 73.984375 -16.265625 73.90625 -15.785156 73.90625 -15.140625 C 73.90625 -14.578125 74.046875 -14.132812 74.328125 -13.8125 C 74.609375 -13.5 74.988281 -13.34375 75.46875 -13.34375 C 76.425781 -13.34375 77.242188 -13.757812 77.921875 -14.59375 C 78.609375 -15.4375 79.070312 -15.859375 79.3125 -15.859375 C 79.71875 -15.859375 80.039062 -15.597656 80.28125 -15.078125 C 80.519531 -14.554688 80.640625 -13.9375 80.640625 -13.21875 C 80.710938 -10.894531 79.945312 -8.628906 78.34375 -6.421875 C 76.75 -4.222656 74.410156 -2.421875 71.328125 -1.015625 C 68.242188 0.378906 64.535156 1.078125 60.203125 1.078125 C 54.921875 1.078125 50.71875 -0.140625 47.59375 -2.578125 C 44.46875 -5.023438 42.863281 -8.289062 42.78125 -12.375 C 42.78125 -15.34375 43.5 -18.671875 44.9375 -22.359375 L 51.546875 -39.65625 C 51.953125 -40.695312 52.15625 -41.539062 52.15625 -42.1875 C 52.15625 -43.226562 51.8125 -44.046875 51.125 -44.640625 C 50.445312 -45.242188 49.628906 -45.546875 48.671875 -45.546875 C 47.304688 -45.546875 45.898438 -44.960938 44.453125 -43.796875 C 43.015625 -42.640625 41.816406 -40.78125 40.859375 -38.21875 L 32.921875 -12.5 C 32.609375 -11.613281 32.453125 -10.769531 32.453125 -9.96875 C 32.453125 -9.007812 32.648438 -8.226562 33.046875 -7.625 C 33.441406 -7.03125 34.003906 -6.410156 34.734375 -5.765625 C 35.296875 -5.285156 35.695312 -4.84375 35.9375 -4.4375 C 36.175781 -4.039062 36.210938 -3.5625 36.046875 -3 C 35.734375 -1.957031 34.972656 -1.195312 33.765625 -0.71875 C 32.566406 -0.238281 30.6875 0 28.125 0 L 0.71875 0 C -1.363281 0 -2.863281 -0.335938 -3.78125 -1.015625 C -4.707031 -1.703125 -5.050781 -2.601562 -4.8125 -3.71875 C -4.488281 -4.6875 -3.644531 -5.53125 -2.28125 -6.25 C -1.082031 -6.882812 -0.0820312 -7.644531 0.71875 -8.53125 C 1.519531 -9.414062 2.203125 -10.816406 2.765625 -12.734375 L 13.453125 -47.46875 C 13.617188 -47.863281 13.703125 -48.425781 13.703125 -49.15625 C 13.703125 -50.03125 13.519531 -50.707031 13.15625 -51.1875 C 12.800781 -51.675781 12.222656 -52.28125 11.421875 -53 C 10.617188 -53.632812 10.054688 -54.191406 9.734375 -54.671875 C 9.410156 -55.160156 9.367188 -55.800781 9.609375 -56.59375 C 10.085938 -58.4375 12.609375 -60.0625 17.171875 -61.46875 C 21.742188 -62.875 26.515625 -63.578125 31.484375 -63.578125 C 35.410156 -63.578125 38.515625 -62.492188 40.796875 -60.328125 C 43.078125 -58.160156 44.179688 -55.195312 44.109375 -51.4375 C 47.390625 -56 50.851562 -59.160156 54.5 -60.921875 C 58.144531 -62.691406 62.085938 -63.578125 66.328125 -63.578125 C 70.984375 -63.578125 74.769531 -62.234375 77.6875 -59.546875 C 80.613281 -56.859375 82.238281 -53.351562 82.5625 -49.03125 C 86 -54.476562 89.679688 -58.265625 93.609375 -60.390625 C 97.535156 -62.515625 101.820312 -63.578125 106.46875 -63.578125 C 111.351562 -63.578125 115.296875 -62.09375 118.296875 -59.125 C 121.304688 -56.15625 122.8125 -52.3125 122.8125 -47.59375 C 122.8125 -45.101562 122.410156 -42.65625 121.609375 -40.25 Z M 114.28125 -16.578125 "/></g></g></g><g fill="#2c3f70" fill-opacity="1"><g transform="translate(730.214704, 124.721735)"><g><path d="M 31.609375 -63.578125 C 36.253906 -63.578125 39.65625 -62.691406 41.8125 -60.921875 C 43.976562 -59.160156 45.0625 -56.757812 45.0625 -53.71875 C 45.0625 -51.875 44.78125 -50.109375 44.21875 -48.421875 L 33.171875 -12.5 C 32.929688 -11.539062 32.8125 -10.695312 32.8125 -9.96875 C 32.8125 -8.925781 33.007812 -8.101562 33.40625 -7.5 C 33.800781 -6.90625 34.363281 -6.328125 35.09375 -5.765625 C 35.65625 -5.203125 36.054688 -4.738281 36.296875 -4.375 C 36.535156 -4.019531 36.570312 -3.5625 36.40625 -3 C 36.007812 -1.957031 35.207031 -1.195312 34 -0.71875 C 32.800781 -0.238281 30.960938 0 28.484375 0 L 1.078125 0 C -1.003906 0 -2.523438 -0.335938 -3.484375 -1.015625 C -4.441406 -1.703125 -4.765625 -2.601562 -4.453125 -3.71875 C -4.128906 -4.6875 -3.285156 -5.53125 -1.921875 -6.25 C -0.722656 -6.882812 0.273438 -7.644531 1.078125 -8.53125 C 1.878906 -9.414062 2.5625 -10.816406 3.125 -12.734375 L 13.578125 -47.46875 C 13.816406 -48.1875 13.9375 -48.785156 13.9375 -49.265625 C 13.9375 -50.148438 13.734375 -50.851562 13.328125 -51.375 C 12.929688 -51.894531 12.332031 -52.4375 11.53125 -53 C 10.726562 -53.632812 10.164062 -54.191406 9.84375 -54.671875 C 9.53125 -55.160156 9.492188 -55.800781 9.734375 -56.59375 C 10.210938 -58.4375 12.734375 -60.0625 17.296875 -61.46875 C 21.867188 -62.875 26.640625 -63.578125 31.609375 -63.578125 Z M 39.640625 -90.125 C 42.765625 -90.125 45.367188 -89.101562 47.453125 -87.0625 C 49.535156 -85.019531 50.578125 -82.515625 50.578125 -79.546875 C 50.578125 -77.460938 50.035156 -75.421875 48.953125 -73.421875 C 47.878906 -71.421875 46.359375 -69.800781 44.390625 -68.5625 C 42.429688 -67.320312 40.25 -66.703125 37.84375 -66.703125 C 34.800781 -66.703125 32.257812 -67.722656 30.21875 -69.765625 C 28.175781 -71.804688 27.113281 -74.347656 27.03125 -77.390625 C 27.03125 -79.390625 27.550781 -81.367188 28.59375 -83.328125 C 29.632812 -85.296875 31.113281 -86.921875 33.03125 -88.203125 C 34.957031 -89.484375 37.160156 -90.125 39.640625 -90.125 Z M 39.640625 -90.125 "/></g></g><g transform="translate(774.19486, 124.721735)"><g><path d="M 38.328125 -88.8125 C 42.984375 -88.8125 46.410156 -87.925781 48.609375 -86.15625 C 50.816406 -84.394531 51.921875 -81.992188 51.921875 -78.953125 C 51.921875 -77.191406 51.640625 -75.46875 51.078125 -73.78125 L 32.203125 -12.5 C 31.960938 -11.539062 31.84375 -10.695312 31.84375 -9.96875 C 31.84375 -8.925781 32.039062 -8.101562 32.4375 -7.5 C 32.84375 -6.90625 33.40625 -6.328125 34.125 -5.765625 C 34.6875 -5.203125 35.085938 -4.738281 35.328125 -4.375 C 35.566406 -4.019531 35.609375 -3.5625 35.453125 -3 C 35.046875 -1.957031 34.242188 -1.195312 33.046875 -0.71875 C 31.847656 -0.238281 30.003906 0 27.515625 0 L 0.125 0 C -1.957031 0 -3.476562 -0.335938 -4.4375 -1.015625 C -5.40625 -1.703125 -5.726562 -2.601562 -5.40625 -3.71875 C -5.082031 -4.6875 -4.242188 -5.53125 -2.890625 -6.25 C -1.679688 -6.882812 -0.675781 -7.644531 0.125 -8.53125 C 0.925781 -9.414062 1.601562 -10.816406 2.15625 -12.734375 L 20.421875 -72.703125 C 20.671875 -73.421875 20.796875 -74.019531 20.796875 -74.5 C 20.796875 -75.382812 20.570312 -76.109375 20.125 -76.671875 C 19.6875 -77.234375 19.109375 -77.796875 18.390625 -78.359375 C 17.585938 -78.992188 17.003906 -79.550781 16.640625 -80.03125 C 16.285156 -80.507812 16.226562 -81.148438 16.46875 -81.953125 C 16.945312 -83.796875 19.46875 -85.398438 24.03125 -86.765625 C 28.601562 -88.128906 33.367188 -88.8125 38.328125 -88.8125 Z M 38.328125 -88.8125 "/></g></g></g><g fill="#2c3f70" fill-opacity="1"><g transform="translate(818.174965, 124.721735)"><g><path d="M 38.328125 -88.8125 C 42.984375 -88.8125 46.410156 -87.925781 48.609375 -86.15625 C 50.816406 -84.394531 51.921875 -81.992188 51.921875 -78.953125 C 51.921875 -77.191406 51.640625 -75.46875 51.078125 -73.78125 L 32.203125 -12.5 C 31.960938 -11.539062 31.84375 -10.695312 31.84375 -9.96875 C 31.84375 -8.925781 32.039062 -8.101562 32.4375 -7.5 C 32.84375 -6.90625 33.40625 -6.328125 34.125 -5.765625 C 34.6875 -5.203125 35.085938 -4.738281 35.328125 -4.375 C 35.566406 -4.019531 35.609375 -3.5625 35.453125 -3 C 35.046875 -1.957031 34.242188 -1.195312 33.046875 -0.71875 C 31.847656 -0.238281 30.003906 0 27.515625 0 L 0.125 0 C -1.957031 0 -3.476562 -0.335938 -4.4375 -1.015625 C -5.40625 -1.703125 -5.726562 -2.601562 -5.40625 -3.71875 C -5.082031 -4.6875 -4.242188 -5.53125 -2.890625 -6.25 C -1.679688 -6.882812 -0.675781 -7.644531 0.125 -8.53125 C 0.925781 -9.414062 1.601562 -10.816406 2.15625 -12.734375 L 20.421875 -72.703125 C 20.671875 -73.421875 20.796875 -74.019531 20.796875 -74.5 C 20.796875 -75.382812 20.570312 -76.109375 20.125 -76.671875 C 19.6875 -77.234375 19.109375 -77.796875 18.390625 -78.359375 C 17.585938 -78.992188 17.003906 -79.550781 16.640625 -80.03125 C 16.285156 -80.507812 16.226562 -81.148438 16.46875 -81.953125 C 16.945312 -83.796875 19.46875 -85.398438 24.03125 -86.765625 C 28.601562 -88.128906 33.367188 -88.8125 38.328125 -88.8125 Z M 38.328125 -88.8125 "/></g></g><g transform="translate(862.155121, 124.721735)"><g><path d="M 63.6875 -63.578125 C 67.21875 -63.578125 70.039062 -62.148438 72.15625 -59.296875 C 74.28125 -56.453125 75.34375 -52.585938 75.34375 -47.703125 C 75.34375 -43.460938 74.582031 -38.898438 73.0625 -34.015625 C 70.101562 -24.160156 65.359375 -14.863281 58.828125 -6.125 C 52.296875 2.601562 44.800781 9.609375 36.34375 14.890625 C 27.894531 20.179688 19.46875 22.828125 11.0625 22.828125 C 6.894531 22.828125 3.304688 22.101562 0.296875 20.65625 C -2.703125 19.21875 -4.984375 17.296875 -6.546875 14.890625 C -8.109375 12.492188 -8.890625 9.929688 -8.890625 7.203125 C -8.890625 6.003906 -8.691406 4.6875 -8.296875 3.25 C -7.566406 1 -6.359375 -0.722656 -4.671875 -1.921875 C -2.992188 -3.117188 -0.992188 -3.71875 1.328125 -3.71875 C 5.003906 -3.71875 8.023438 -2.457031 10.390625 0.0625 C 12.753906 2.582031 14.257812 6.046875 14.90625 10.453125 C 20.03125 10.210938 24.753906 8.007812 29.078125 3.84375 C 24.992188 3.125 21.96875 1.742188 20 -0.296875 C 18.039062 -2.335938 16.703125 -5.523438 15.984375 -9.859375 L 11.171875 -39.296875 C 10.929688 -40.816406 10.59375 -41.875 10.15625 -42.46875 C 9.71875 -43.070312 9.132812 -43.375 8.40625 -43.375 C 7.851562 -43.375 7.191406 -43.09375 6.421875 -42.53125 C 5.660156 -41.976562 5.125 -41.703125 4.8125 -41.703125 C 4.164062 -41.703125 3.84375 -42.382812 3.84375 -43.75 C 3.84375 -44.863281 4.046875 -46.0625 4.453125 -47.34375 C 5.890625 -51.914062 8.570312 -55.78125 12.5 -58.9375 C 16.425781 -62.101562 20.992188 -63.6875 26.203125 -63.6875 C 31.328125 -63.6875 35.109375 -62.164062 37.546875 -59.125 C 39.992188 -56.082031 41.578125 -51.394531 42.296875 -45.0625 L 45.90625 -18.625 C 46.144531 -16.625 46.863281 -15.625 48.0625 -15.625 C 49.507812 -15.625 51.191406 -16.925781 53.109375 -19.53125 C 55.035156 -22.132812 56.921875 -25.835938 58.765625 -30.640625 C 56.359375 -32.804688 54.515625 -35.289062 53.234375 -38.09375 C 51.953125 -40.894531 51.3125 -43.898438 51.3125 -47.109375 C 51.3125 -49.585938 51.632812 -51.832031 52.28125 -53.84375 C 53.238281 -57.039062 54.738281 -59.460938 56.78125 -61.109375 C 58.820312 -62.753906 61.125 -63.578125 63.6875 -63.578125 Z M 63.6875 -63.578125 "/></g></g></g><g fill="#2c3f70" fill-opacity="1"><g transform="translate(936.656979, 124.721735)"><g/></g></g><g fill="#2c3f70" fill-opacity="1"><g transform="translate(960.689808, 124.721735)"><g><path d="M 129.0625 -80.03125 C 130.75 -80.03125 132.050781 -79.769531 132.96875 -79.25 C 133.894531 -78.726562 134.359375 -77.988281 134.359375 -77.03125 C 134.359375 -76.625 134.234375 -76.101562 133.984375 -75.46875 C 133.742188 -74.75 133.40625 -74.207031 132.96875 -73.84375 C 132.53125 -73.488281 131.867188 -73.03125 130.984375 -72.46875 C 129.703125 -71.738281 128.679688 -70.929688 127.921875 -70.046875 C 127.160156 -69.171875 126.5 -67.8125 125.9375 -65.96875 L 111.28125 -14.296875 C 110.957031 -13.253906 110.796875 -12.253906 110.796875 -11.296875 C 110.796875 -10.410156 110.9375 -9.664062 111.21875 -9.0625 C 111.5 -8.46875 111.878906 -7.769531 112.359375 -6.96875 C 112.679688 -6.570312 112.960938 -6.148438 113.203125 -5.703125 C 113.441406 -5.265625 113.5625 -4.804688 113.5625 -4.328125 C 113.5625 -4.160156 113.484375 -3.757812 113.328125 -3.125 C 113.003906 -2.082031 112.257812 -1.320312 111.09375 -0.84375 C 109.9375 -0.363281 108.273438 -0.125 106.109375 -0.125 L 77.875 -0.125 C 76.1875 -0.125 74.878906 -0.398438 73.953125 -0.953125 C 73.035156 -1.515625 72.578125 -2.28125 72.578125 -3.25 C 72.578125 -3.726562 72.695312 -4.25 72.9375 -4.8125 C 73.1875 -5.363281 73.53125 -5.859375 73.96875 -6.296875 C 74.40625 -6.742188 74.800781 -7.066406 75.15625 -7.265625 C 75.519531 -7.472656 75.785156 -7.65625 75.953125 -7.8125 C 77.234375 -8.53125 78.273438 -9.328125 79.078125 -10.203125 C 79.878906 -11.085938 80.554688 -12.453125 81.109375 -14.296875 L 90.25 -46.75 L 59.125 -8.171875 C 56.5625 -5.046875 54.5 -2.898438 52.9375 -1.734375 C 51.375 -0.578125 49.59375 0 47.59375 0 C 45.664062 0 44.160156 -0.617188 43.078125 -1.859375 C 41.992188 -3.097656 41.015625 -5.203125 40.140625 -8.171875 L 28.84375 -45.3125 L 19.953125 -14.1875 C 19.628906 -13.144531 19.46875 -12.140625 19.46875 -11.171875 C 19.46875 -10.210938 19.609375 -9.410156 19.890625 -8.765625 C 20.171875 -8.128906 20.59375 -7.453125 21.15625 -6.734375 C 21.875 -5.691406 22.234375 -4.847656 22.234375 -4.203125 C 22.234375 -4.046875 22.148438 -3.644531 21.984375 -3 C 21.671875 -1.882812 20.953125 -1.101562 19.828125 -0.65625 C 18.703125 -0.21875 17.019531 0 14.78125 0 L 4.8125 0 C 3.125 0 1.816406 -0.28125 0.890625 -0.84375 C -0.0234375 -1.40625 -0.484375 -2.164062 -0.484375 -3.125 C -0.484375 -3.601562 -0.363281 -4.125 -0.125 -4.6875 C 0.195312 -5.570312 0.71875 -6.253906 1.4375 -6.734375 C 2.164062 -7.210938 2.609375 -7.492188 2.765625 -7.578125 C 4.046875 -8.367188 5.085938 -9.1875 5.890625 -10.03125 C 6.691406 -10.875 7.375 -12.257812 7.9375 -14.1875 L 22.59375 -66.09375 L 20.671875 -72.46875 C 20.265625 -73.664062 20.0625 -74.828125 20.0625 -75.953125 C 20.0625 -77.390625 20.519531 -78.425781 21.4375 -79.0625 C 22.363281 -79.707031 23.789062 -80.03125 25.71875 -80.03125 L 44.34375 -80.03125 C 46.75 -80.03125 48.53125 -79.507812 49.6875 -78.46875 C 50.851562 -77.425781 51.796875 -75.625 52.515625 -73.0625 L 64.53125 -33.171875 L 97.09375 -73.671875 C 99.175781 -76.234375 101.21875 -77.929688 103.21875 -78.765625 C 105.226562 -79.609375 107.875 -80.03125 111.15625 -80.03125 Z M 129.0625 -80.03125 "/></g></g></g><g fill="#2c3f70" fill-opacity="1"><g transform="translate(1085.059824, 124.721735)"><g><path d="M 46.5 -63.578125 C 57.394531 -63.578125 65.425781 -61.375 70.59375 -56.96875 C 75.769531 -52.5625 78.359375 -46.789062 78.359375 -39.65625 C 78.359375 -37.25 78.035156 -34.566406 77.390625 -31.609375 C 75.867188 -25.035156 73.023438 -19.285156 68.859375 -14.359375 C 64.691406 -9.429688 59.582031 -5.625 53.53125 -2.9375 C 47.488281 -0.257812 40.941406 1.078125 33.890625 1.078125 C 22.753906 1.078125 14.519531 -1.140625 9.1875 -5.578125 C 3.863281 -10.023438 1.203125 -15.9375 1.203125 -23.3125 C 1.203125 -25.789062 1.519531 -28.554688 2.15625 -31.609375 C 3.6875 -37.859375 6.59375 -43.40625 10.875 -48.25 C 15.164062 -53.09375 20.414062 -56.859375 26.625 -59.546875 C 32.832031 -62.234375 39.457031 -63.578125 46.5 -63.578125 Z M 46.140625 -52.875 C 44.460938 -52.875 42.679688 -51.367188 40.796875 -48.359375 C 38.910156 -45.359375 36.6875 -39.691406 34.125 -31.359375 C 31.5625 -23.023438 30.28125 -17.175781 30.28125 -13.8125 C 30.28125 -12.050781 30.5625 -10.867188 31.125 -10.265625 C 31.6875 -9.671875 32.445312 -9.375 33.40625 -9.375 C 35.09375 -9.21875 36.835938 -10.660156 38.640625 -13.703125 C 40.441406 -16.742188 42.703125 -22.671875 45.421875 -31.484375 C 47.910156 -39.253906 49.15625 -44.898438 49.15625 -48.421875 C 49.15625 -50.109375 48.894531 -51.269531 48.375 -51.90625 C 47.851562 -52.550781 47.109375 -52.875 46.140625 -52.875 Z M 46.140625 -52.875 "/></g></g></g><g fill="#2c3f70" fill-opacity="1"><g transform="translate(1163.887594, 124.721735)"><g><path d="M 53.71875 -62.015625 C 55.238281 -62.015625 56.421875 -61.691406 57.265625 -61.046875 C 58.109375 -60.398438 58.53125 -59.519531 58.53125 -58.40625 C 58.53125 -58.082031 58.445312 -57.519531 58.28125 -56.71875 C 57.238281 -53.195312 54.835938 -51.4375 51.078125 -51.4375 L 44.109375 -51.4375 L 35.09375 -21.75 C 34.6875 -20.550781 34.484375 -19.3125 34.484375 -18.03125 C 34.484375 -16.582031 34.882812 -15.578125 35.6875 -15.015625 C 36.488281 -14.460938 37.613281 -14.1875 39.0625 -14.1875 C 40.34375 -14.1875 41.941406 -14.34375 43.859375 -14.65625 C 44.828125 -14.894531 45.671875 -15.015625 46.390625 -15.015625 C 46.953125 -15.015625 47.367188 -14.832031 47.640625 -14.46875 C 47.921875 -14.113281 48.0625 -13.65625 48.0625 -13.09375 C 48.144531 -11.488281 46.960938 -9.546875 44.515625 -7.265625 C 42.078125 -4.984375 38.773438 -3.019531 34.609375 -1.375 C 30.441406 0.257812 25.835938 1.078125 20.796875 1.078125 C 15.347656 1.078125 10.976562 -0.160156 7.6875 -2.640625 C 4.40625 -5.128906 2.765625 -8.535156 2.765625 -12.859375 C 2.765625 -14.859375 3.082031 -16.78125 3.71875 -18.625 L 11.421875 -42.421875 C 11.816406 -43.785156 12.015625 -44.867188 12.015625 -45.671875 C 12.015625 -47.265625 11.632812 -48.625 10.875 -49.75 C 10.113281 -50.875 9.050781 -52.035156 7.6875 -53.234375 C 6.488281 -54.359375 5.648438 -55.300781 5.171875 -56.0625 C 4.691406 -56.820312 4.570312 -57.722656 4.8125 -58.765625 C 5.125 -59.804688 5.800781 -60.609375 6.84375 -61.171875 C 7.882812 -61.734375 9.53125 -62.015625 11.78125 -62.015625 L 18.5 -62.015625 L 26.078125 -69.578125 C 28.722656 -72.222656 31.144531 -74.066406 33.34375 -75.109375 C 35.550781 -76.148438 38.414062 -76.671875 41.9375 -76.671875 C 46.988281 -76.671875 49.515625 -74.75 49.515625 -70.90625 C 49.515625 -69.695312 49.351562 -68.570312 49.03125 -67.53125 L 47.34375 -62.015625 Z M 53.71875 -62.015625 "/></g></g></g><g fill="#2c3f70" fill-opacity="1"><g transform="translate(1209.5501, 124.721735)"><g><path d="M 53.71875 -62.015625 C 55.238281 -62.015625 56.421875 -61.691406 57.265625 -61.046875 C 58.109375 -60.398438 58.53125 -59.519531 58.53125 -58.40625 C 58.53125 -58.082031 58.445312 -57.519531 58.28125 -56.71875 C 57.238281 -53.195312 54.835938 -51.4375 51.078125 -51.4375 L 44.109375 -51.4375 L 35.09375 -21.75 C 34.6875 -20.550781 34.484375 -19.3125 34.484375 -18.03125 C 34.484375 -16.582031 34.882812 -15.578125 35.6875 -15.015625 C 36.488281 -14.460938 37.613281 -14.1875 39.0625 -14.1875 C 40.34375 -14.1875 41.941406 -14.34375 43.859375 -14.65625 C 44.828125 -14.894531 45.671875 -15.015625 46.390625 -15.015625 C 46.953125 -15.015625 47.367188 -14.832031 47.640625 -14.46875 C 47.921875 -14.113281 48.0625 -13.65625 48.0625 -13.09375 C 48.144531 -11.488281 46.960938 -9.546875 44.515625 -7.265625 C 42.078125 -4.984375 38.773438 -3.019531 34.609375 -1.375 C 30.441406 0.257812 25.835938 1.078125 20.796875 1.078125 C 15.347656 1.078125 10.976562 -0.160156 7.6875 -2.640625 C 4.40625 -5.128906 2.765625 -8.535156 2.765625 -12.859375 C 2.765625 -14.859375 3.082031 -16.78125 3.71875 -18.625 L 11.421875 -42.421875 C 11.816406 -43.785156 12.015625 -44.867188 12.015625 -45.671875 C 12.015625 -47.265625 11.632812 -48.625 10.875 -49.75 C 10.113281 -50.875 9.050781 -52.035156 7.6875 -53.234375 C 6.488281 -54.359375 5.648438 -55.300781 5.171875 -56.0625 C 4.691406 -56.820312 4.570312 -57.722656 4.8125 -58.765625 C 5.125 -59.804688 5.800781 -60.609375 6.84375 -61.171875 C 7.882812 -61.734375 9.53125 -62.015625 11.78125 -62.015625 L 18.5 -62.015625 L 26.078125 -69.578125 C 28.722656 -72.222656 31.144531 -74.066406 33.34375 -75.109375 C 35.550781 -76.148438 38.414062 -76.671875 41.9375 -76.671875 C 46.988281 -76.671875 49.515625 -74.75 49.515625 -70.90625 C 49.515625 -69.695312 49.351562 -68.570312 49.03125 -67.53125 L 47.34375 -62.015625 Z M 53.71875 -62.015625 "/></g></g></g><g fill="#2c3f70" fill-opacity="1"><g transform="translate(1261.22065, 124.721735)"><g><path d="M 42.90625 -63.578125 C 52.113281 -63.578125 59.484375 -61.875 65.015625 -58.46875 C 70.546875 -55.0625 73.3125 -49.875 73.3125 -42.90625 C 73.3125 -40.257812 72.828125 -37.253906 71.859375 -33.890625 L 66.9375 -17.3125 C 66.851562 -16.988281 66.8125 -16.585938 66.8125 -16.109375 C 66.8125 -14.828125 67.332031 -14.1875 68.375 -14.1875 C 69.332031 -14.1875 70.148438 -14.601562 70.828125 -15.4375 C 71.515625 -16.28125 71.976562 -16.703125 72.21875 -16.703125 C 72.625 -16.703125 72.96875 -16.421875 73.25 -15.859375 C 73.53125 -15.296875 73.671875 -14.65625 73.671875 -13.9375 C 73.742188 -11.769531 72.921875 -9.566406 71.203125 -7.328125 C 69.484375 -5.085938 67.179688 -3.242188 64.296875 -1.796875 C 61.410156 -0.359375 58.242188 0.359375 54.796875 0.359375 C 50.628906 0.359375 47.0625 -0.398438 44.09375 -1.921875 C 41.132812 -3.441406 39.09375 -5.6875 37.96875 -8.65625 C 35.570312 -5.769531 32.726562 -3.546875 29.4375 -1.984375 C 26.15625 -0.421875 22.628906 0.359375 18.859375 0.359375 C 14.617188 0.359375 11.054688 -0.457031 8.171875 -2.09375 C 5.285156 -3.738281 3.140625 -5.863281 1.734375 -8.46875 C 0.335938 -11.070312 -0.359375 -13.816406 -0.359375 -16.703125 C -0.359375 -17.984375 -0.238281 -19.222656 0 -20.421875 C 1.28125 -25.953125 4.0625 -30.117188 8.34375 -32.921875 C 12.632812 -35.734375 17.742188 -37.140625 23.671875 -37.140625 C 30.316406 -37.140625 36.847656 -36.097656 43.265625 -34.015625 L 46.265625 -41.9375 C 47.304688 -45.300781 47.828125 -47.90625 47.828125 -49.75 C 47.742188 -51.675781 47.101562 -53.117188 45.90625 -54.078125 C 44.707031 -55.035156 42.863281 -55.515625 40.375 -55.515625 C 40.851562 -54.234375 41.09375 -52.910156 41.09375 -51.546875 C 41.09375 -48.585938 39.972656 -46.023438 37.734375 -43.859375 C 35.492188 -41.703125 32.289062 -40.625 28.125 -40.625 C 24.195312 -40.625 21.128906 -41.484375 18.921875 -43.203125 C 16.722656 -44.921875 15.625 -47.0625 15.625 -49.625 C 15.625 -53.632812 17.863281 -56.960938 22.34375 -59.609375 C 26.832031 -62.253906 33.6875 -63.578125 42.90625 -63.578125 Z M 36.171875 -27.15625 C 33.929688 -27.15625 32.109375 -26.289062 30.703125 -24.5625 C 29.296875 -22.84375 28.59375 -20.984375 28.59375 -18.984375 C 28.59375 -17.703125 28.894531 -16.660156 29.5 -15.859375 C 30.101562 -15.054688 30.960938 -14.65625 32.078125 -14.65625 C 33.117188 -14.65625 34.257812 -15.078125 35.5 -15.921875 C 36.75 -16.765625 37.65625 -18.023438 38.21875 -19.703125 L 40.734375 -26.796875 C 39.378906 -27.035156 37.859375 -27.15625 36.171875 -27.15625 Z M 36.171875 -27.15625 "/></g></g></g></g></g></svg>